# xmcd
#
# Track frame offsets: 
#        150
#        19745
#        41462
#        61073
#        76711
#        95304
#        113088
#        132210
#        152740
#        171267
#        188904
#        210754
#        230052
#
# Disc length: 3273 seconds
#
# Revision: 0
# Processed by: cddbd v1.5.2PL0 Copyright (c) Steve Scherf et al.
# Submitted via: ExactAudioCopy v0.99pb5
#
DISCID=970cc70d
DTITLE=Various Artist - Hard and Heavy Time Life Box Set -  Power Ballads Disc 2
DYEAR=1900
DGENRE=
TTITLE0=Bad English - When I See You Smile
TTITLE1=Cheap Trick - The Flame
TTITLE2=Poison - Every Rose Has Its Thorn
TTITLE3=Kansas - Dust In The Wind
TTITLE4=Warrant - Heaven
TTITLE5=Sheriff - When I'm With You
TTITLE6=Survivor - The Search Is Over
TTITLE7=Europe - Carrie
TTITLE8=Loverboy - Heaven In Your Eyes
TTITLE9=Heart - How Can I Refuse
TTITLE10=Firehouse - Love Of A Lifetime
TTITLE11=Honeymoon Suite - What Does It Take
TTITLE12=Mr. Big - To Be With You
EXTD=
EXTT0=
EXTT1=
EXTT2=
EXTT3=
EXTT4=
EXTT5=
EXTT6=
EXTT7=
EXTT8=
EXTT9=
EXTT10=
EXTT11=
EXTT12=
PLAYORDER=
